HIERARCHY
ROOT root
{
	OFFSET 0.000000 0.000000 0.000000
	CHANNELS 6 Xposition Yposition Zposition Zrotation Yrotation Xrotation
	JOINT lhip
	{
		OFFSET 0.058581 -0.082280 -0.017664
		CHANNELS 3 Zrotation Yrotation Xrotation
		JOINT lknee
		{
			OFFSET 0.043451 -0.386469 0.008037
			CHANNELS 3 Zrotation Yrotation Xrotation
			JOINT lankle
			{
				OFFSET -0.014790 -0.426874 -0.037428
				CHANNELS 3 Zrotation Yrotation Xrotation
				JOINT ltoe
				{
					OFFSET 0.041054 -0.060286 0.122042
					CHANNELS 3 Zrotation Yrotation Xrotation
					End Site
					{
						OFFSET 0.000000 0.000000 0.000000
					}
				}
			}
		}
	}
	JOINT rhip
	{
		OFFSET -0.060310 -0.090513 -0.013543
		CHANNELS 3 Zrotation Yrotation Xrotation
		JOINT rknee
		{
			OFFSET -0.043257 -0.383688 -0.004843
			CHANNELS 3 Zrotation Yrotation Xrotation
			JOINT rankle
			{
				OFFSET 0.019056 -0.420046 -0.034562
				CHANNELS 3 Zrotation Yrotation Xrotation
				JOINT rtoe
				{
					OFFSET -0.034840 -0.062106 0.130323
					CHANNELS 3 Zrotation Yrotation Xrotation
					End Site
					{
						OFFSET 0.000000 0.000000 0.000000
					}
				}
			}
		}
	}
	JOINT lowerback
	{
		OFFSET 0.004439 0.124404 -0.038385
		CHANNELS 3 Zrotation Yrotation Xrotation
		JOINT upperback
		{
			OFFSET 0.004488 0.137956 0.026820
			CHANNELS 3 Zrotation Yrotation Xrotation
			JOINT chest
			{
				OFFSET -0.002265 0.056032 0.002855
				CHANNELS 3 Zrotation Yrotation Xrotation
				JOINT lowerneck
				{
					OFFSET -0.013390 0.211636 -0.033468
					CHANNELS 3 Zrotation Yrotation Xrotation
					JOINT upperneck
					{
						OFFSET 0.010113 0.088937 0.050410
						CHANNELS 3 Zrotation Yrotation Xrotation
						End Site
						{
							OFFSET 0.000000 0.000000 0.000000
						}
					}
				}
				JOINT lclavicle
				{
					OFFSET 0.071702 0.114000 -0.018898
					CHANNELS 3 Zrotation Yrotation Xrotation
					JOINT lshoulder
					{
						OFFSET 0.122921 0.045205 -0.019046
						CHANNELS 3 Zrotation Yrotation Xrotation
						JOINT lelbow
						{
							OFFSET 0.255332 -0.015649 -0.022946
							CHANNELS 3 Zrotation Yrotation Xrotation
							JOINT lwrist
							{
								OFFSET 0.265709 0.012698 -0.007375
								CHANNELS 3 Zrotation Yrotation Xrotation
								End Site
								{
									OFFSET 0.000000 0.000000 0.000000
								}
							}
						}
					}
				}
				JOINT rclavicle
				{
					OFFSET -0.082954 0.112472 -0.023707
					CHANNELS 3 Zrotation Yrotation Xrotation
					JOINT rshoulder
					{
						OFFSET -0.113228 0.046853 -0.008472
						CHANNELS 3 Zrotation Yrotation Xrotation
						JOINT relbow
						{
							OFFSET -0.260127 -0.014369 -0.031269
							CHANNELS 3 Zrotation Yrotation Xrotation
							JOINT rwrist
							{
								OFFSET -0.269108 0.006794 -0.006027
								CHANNELS 3 Zrotation Yrotation Xrotation
								End Site
								{
									OFFSET 0.000000 0.000000 0.000000
								}
							}
						}
					}
				}
			}
		}
	}
}
MOTION
Frames: 16
Frame Time: 0.033333
-0.232236 -1.213638 0.981013 177.235993 0.501621 90.146469 8.652301 3.257957 2.196609 -2.171380 -5.064907 -3.307923 2.506787 5.096444 -2.239048 0.000000 -0.000000 0.000000 -5.259986 -8.474581 7.620877 3.619934 -8.737634 -10.954772 0.109830 -8.222767 -3.356905 0.000000 -0.000000 0.000000 1.891448 3.707582 5.279422 0.612257 -3.042414 7.684652 0.555911 -0.204758 -8.587757 -3.371230 4.381138 5.619879 6.062669 1.548361 -6.493330 -26.750559 -9.027929 3.856390 -55.369089 -2.338762 11.974502 17.615533 -27.310187 -15.236889 -0.915105 -11.722179 -2.923675 23.572080 11.770750 8.470268 53.038708 -0.483238 7.882044 -18.870825 26.183387 -14.170524 9.992045 13.330686 -7.800901 
-0.231324 -1.213169 0.981020 177.073215 0.498574 90.212082 8.747655 3.246639 2.269036 -2.222159 -4.805900 -3.440013 2.379628 5.123817 -2.254987 0.000000 -0.000000 0.000000 -5.199959 -8.273681 7.381132 3.592109 -8.825884 -10.625385 0.367903 -8.184137 -3.654465 0.000000 -0.000000 0.000000 1.968554 3.724114 5.211883 0.532474 -3.012355 7.466976 0.618119 -0.116300 -8.426729 -3.307595 4.371029 5.285858 6.089652 1.547090 -5.916609 -26.783109 -9.595911 4.017701 -56.007534 -2.975248 12.148610 18.420213 -30.565857 -14.660285 -0.509129 -12.045819 -3.185124 23.302749 12.211952 8.409198 53.330969 0.126108 8.106532 -19.547229 29.653233 -13.621249 9.630471 13.992451 -8.239339 
-0.229995 -1.212552 0.981237 176.945215 0.607252 90.224284 9.007187 3.305398 2.445983 -2.284686 -4.690601 -3.622654 2.252498 5.097889 -2.442937 0.000000 -0.000000 0.000000 -5.035780 -8.172955 7.202900 3.613033 -8.886329 -10.227652 0.495903 -8.043743 -3.964002 0.000000 -0.000000 0.000000 2.177608 3.631288 5.239960 0.526670 -2.899600 7.187001 0.641746 -0.048724 -8.251791 -3.287239 4.415164 5.079145 5.992973 1.511560 -5.454601 -26.796997 -10.119754 4.175250 -56.632410 -3.534908 12.312949 18.949183 -33.138468 -13.960362 -0.117361 -12.207492 -3.514051 23.002051 12.531259 8.326163 53.627747 0.915912 8.358191 -20.169963 32.603343 -12.755866 9.328995 14.277580 -8.850491 
-0.227469 -1.211968 0.981988 176.815410 0.733640 90.276679 9.337024 3.332406 2.639154 -2.272898 -4.515879 -3.830472 2.046300 4.723289 -2.425557 0.000000 -0.000000 0.000000 -4.807026 -8.125148 6.875432 3.659913 -9.004072 -9.569427 0.400288 -7.809879 -4.407908 0.000000 -0.000000 0.000000 2.429444 3.449990 5.216606 0.694983 -2.914643 7.268732 0.599145 -0.063496 -8.255058 -3.070287 4.598649 4.574777 5.699905 1.296646 -4.885292 -26.913152 -10.655785 4.179784 -57.206860 -3.969997 12.670307 19.550798 -36.641359 -13.443948 0.544279 -12.135835 -3.184364 23.098148 12.579681 8.308038 53.452306 1.703185 8.456853 -21.040475 37.452435 -12.796935 9.403174 14.085217 -8.182010 
-0.226480 -1.211649 0.982205 176.773725 0.751370 90.305023 9.401973 3.353497 2.664201 -2.255238 -4.398525 -3.838018 1.982624 4.667074 -2.489443 0.000000 -0.000000 0.000000 -4.765863 -8.179332 6.760587 3.701955 -9.045604 -9.350170 0.383047 -7.735666 -4.575357 0.000000 -0.000000 0.000000 2.528639 3.383924 5.258170 0.709252 -2.967087 7.241742 0.566822 -0.091192 -8.283660 -2.984243 4.613154 4.460962 5.675142 1.272540 -4.689721 -26.904847 -10.767551 4.231323 -57.461973 -4.028448 12.755497 19.864217 -37.457727 -13.386188 0.710963 -12.159617 -3.164256 23.036162 12.662262 8.283685 53.557657 1.920837 8.542480 -21.288111 38.599959 -12.709579 9.538170 14.121283 -8.166319 
-0.223913 -1.211269 0.982456 176.791269 0.919541 90.386726 9.603584 3.277023 2.412212 -2.041065 -4.124093 -3.473542 1.999656 4.604818 -2.381117 0.000000 -0.000000 0.000000 -4.399908 -8.181478 6.636477 3.702568 -9.083020 -9.179943 0.328198 -7.766048 -4.838534 0.000000 -0.000000 0.000000 2.795566 3.214193 5.594875 0.786307 -3.123698 6.715880 0.609304 -0.143067 -8.167108 -2.851613 4.539618 4.297480 5.660373 1.320697 -4.271353 -26.925828 -10.875851 4.211670 -58.004397 -4.140548 12.925265 20.200458 -38.193312 -13.246210 0.812397 -12.373063 -3.579289 22.705100 12.835063 7.969046 53.841024 2.168464 9.082897 -21.671736 40.096647 -12.054153 9.703792 14.463407 -8.487383 
-0.220799 -1.209750 0.982560 176.421433 0.961703 90.442512 9.744900 3.460979 2.388927 -1.983002 -3.646968 -3.203101 1.837834 4.797754 -2.703403 0.000000 -0.000000 0.000000 -4.226725 -8.095204 6.501481 3.691629 -8.899673 -8.816817 0.417925 -7.570471 -5.198957 0.000000 -0.000000 0.000000 2.993175 3.152397 5.538501 0.822070 -3.116428 6.732880 0.544023 -0.278029 -8.173130 -2.642478 4.608405 4.417901 5.628061 1.252958 -3.962434 -27.013550 -10.878882 4.228697 -58.303131 -4.025464 12.857033 20.257252 -38.379727 -13.203823 0.304284 -12.306771 -3.578476 22.659930 12.774045 7.818199 53.989392 2.347009 9.382144 -21.863040 41.367485 -11.403874 10.347632 14.525069 -7.904314 
-0.217382 -1.207738 0.982978 175.912859 0.901483 90.384218 9.778293 3.813929 2.302364 -1.938545 -3.231686 -2.459075 1.234675 5.226430 -3.722143 0.000000 -0.000000 0.000000 -4.174181 -7.963651 6.425225 3.685770 -8.645998 -8.322935 0.504634 -7.440923 -5.727594 0.000000 -0.000000 0.000000 3.084036 3.082137 5.510663 0.845251 -3.047684 6.960156 0.476019 -0.279487 -8.266706 -2.456111 4.492810 4.646716 5.694207 1.265368 -3.666637 -27.161837 -10.730905 4.190460 -58.469715 -3.814456 12.724097 20.057240 -37.832729 -13.260654 0.181970 -12.290890 -3.534303 22.659023 12.699199 7.693315 54.089474 2.256796 9.421644 -21.709453 41.848665 -10.986206 10.447480 14.508205 -7.351727 
-0.213318 -1.205821 0.983312 175.519396 0.841527 90.320974 10.001992 3.984002 1.899161 -2.118927 -3.166372 -1.147278 1.338281 5.661169 -3.959682 0.000000 -0.000000 0.000000 -4.055558 -7.767839 6.332758 3.709703 -8.354635 -7.796783 0.298343 -7.458346 -6.330588 0.000000 -0.000000 0.000000 3.115006 3.012690 5.509605 0.865782 -3.032988 7.066542 0.441034 -0.313300 -8.166085 -2.155268 4.382361 4.878551 5.878056 1.234394 -3.261326 -27.366459 -10.485565 4.255529 -58.449437 -3.690817 12.543217 19.596699 -36.502896 -13.110379 -0.256671 -12.085533 -3.609817 22.868737 12.485720 7.770847 54.031510 2.168547 9.478738 -21.481820 41.549039 -10.812468 10.546513 14.608790 -7.414793 
-0.208648 -1.203755 0.983901 174.984561 0.927127 90.053094 10.444663 3.889411 1.580035 -2.286215 -2.798589 0.632000 1.502008 5.947927 -4.038584 0.000000 -0.000000 0.000000 -3.855291 -7.631784 6.334584 3.796322 -7.923864 -6.931068 0.037038 -7.363363 -7.030813 0.000000 -0.000000 0.000000 3.366629 2.980964 5.870977 0.905301 -3.035493 7.061894 0.331199 -0.212027 -7.956314 -1.960397 4.182468 4.733298 5.914604 1.124047 -2.493638 -27.495613 -10.177680 4.175808 -58.500982 -3.551142 12.314867 19.005223 -34.516931 -12.974408 -0.136332 -11.669356 -3.770713 23.045422 12.146863 7.965129 53.911345 2.043072 9.433068 -21.117148 40.552836 -10.857404 10.317340 14.692900 -7.569579 
-0.203441 -1.201223 0.984654 174.401317 0.847336 89.755531 10.887891 3.942418 1.274734 -2.736093 -2.560842 2.562059 1.246998 6.273822 -4.503751 0.000000 -0.000000 0.000000 -3.852774 -7.467853 6.327690 4.005445 -7.466578 -6.010403 -0.305532 -7.312423 -7.818132 0.000000 -0.000000 0.000000 3.375192 3.009786 6.238562 0.906758 -2.921672 7.081965 0.362559 -0.267630 -7.817711 -1.701016 3.927107 5.195347 6.067954 1.244747 -2.135443 -27.740311 -9.906570 4.389401 -58.161351 -3.033197 11.904415 18.205564 -32.560570 -13.344333 0.496137 -11.418531 -4.566921 22.991510 11.902164 7.947497 53.843359 1.551530 9.345401 -19.968775 38.884955 -10.305445 9.669654 14.626492 -7.812393 
-0.197937 -1.199357 0.985494 173.999100 0.943194 89.476144 11.440901 3.759466 0.553140 -3.120870 -2.369824 4.985235 1.033275 6.944639 -5.034439 0.000000 -0.000000 0.000000 -3.599290 -7.328333 6.116586 4.169740 -6.902112 -4.822775 -0.575372 -7.474780 -8.592136 0.000000 -0.000000 0.000000 3.727921 2.949438 6.948673 0.879094 -2.855586 6.689579 0.219736 -0.286648 -7.487214 -1.523034 3.577528 4.605977 6.054326 1.248538 -0.684466 -27.874578 -9.465441 4.306577 -58.140728 -2.989653 11.644238 17.458286 -29.143826 -13.226019 0.445101 -11.059118 -4.704235 23.025957 11.461166 7.661308 53.796135 1.063262 9.474086 -18.885280 36.195619 -9.613045 9.604268 14.713978 -7.831329 
-0.191969 -1.196990 0.986717 173.066686 0.886284 89.347509 11.749957 3.730369 -0.002209 -3.265633 -2.011541 7.300377 1.160567 7.173136 -4.615651 0.000000 -0.000000 0.000000 -3.654030 -7.674074 5.545288 4.471391 -6.018760 -3.319304 -0.667947 -6.947469 -9.167254 0.000000 -0.000000 0.000000 3.987534 3.278198 7.289739 0.826424 -2.707944 6.962398 -0.051621 -0.161736 -7.625035 -1.411483 3.422822 4.030391 6.053370 1.004658 0.605758 -28.062608 -9.043586 4.210560 -57.795104 -2.658134 11.309104 16.506269 -25.632114 -13.776035 0.540557 -10.682901 -4.755049 23.522492 10.872470 7.942842 53.445489 0.521614 9.162650 -18.218277 33.577596 -10.202118 9.682868 14.174017 -6.829548 
-0.185936 -1.194381 0.987772 172.869868 0.671710 89.134781 12.099668 3.411552 -0.791438 -3.741443 -1.703056 9.781303 0.729069 7.475202 -4.668179 0.000000 -0.000000 0.000000 -3.457967 -7.111317 5.350883 4.333519 -5.682554 -2.175853 -0.976008 -7.600744 -9.983838 0.000000 -0.000000 0.000000 3.978672 3.174079 8.008374 0.782746 -2.669191 6.522827 -0.180044 -0.119799 -7.288538 -1.268017 3.333456 3.347893 5.949893 0.799818 1.615651 -28.040754 -8.581463 4.088755 -57.535942 -2.476911 11.040169 15.433814 -21.842130 -13.901669 -0.005816 -10.544360 -5.022390 23.666948 10.522953 7.847099 53.387970 -0.330979 9.251149 -17.485023 30.146997 -9.988260 10.020599 13.762363 -6.432668 
-0.179724 -1.191898 0.989168 172.599393 0.212217 89.156289 12.277596 3.330747 -2.062375 -4.332662 -1.418663 12.616372 -0.012510 7.611060 -4.233236 0.000000 -0.000000 0.000000 -3.489488 -6.797878 4.785796 4.183381 -5.300738 -0.896539 -1.337559 -7.979818 -10.643620 0.000000 -0.000000 0.000000 3.718244 3.311354 8.417796 0.703884 -2.681662 6.488775 -0.287025 -0.151478 -7.170417 -1.205708 3.403804 2.898835 5.851864 0.697711 1.803635 -28.145957 -8.054349 3.928148 -57.329897 -2.183584 10.709488 15.126269 -18.225278 -14.630321 -0.808229 -10.141602 -4.943914 23.896046 10.246049 7.748116 53.165907 -0.926741 9.229696 -16.738709 26.653821 -9.757855 10.741046 13.291261 -5.781987 
-0.173039 -1.189074 0.990691 172.348544 -0.303775 88.919492 12.534013 2.995275 -3.558053 -5.022992 -1.023560 16.330943 -0.985123 7.631913 -3.650799 0.000000 -0.000000 0.000000 -3.553215 -6.518193 4.750608 4.006041 -5.006781 -0.039501 -1.717349 -8.381833 -11.306041 0.000000 -0.000000 0.000000 3.343611 3.551370 9.172557 0.587276 -2.733422 6.356318 -0.226134 -0.155067 -6.933858 -1.158658 3.555965 2.835378 5.888605 0.651499 1.402271 -27.896143 -7.650960 3.742837 -57.406363 -1.966000 10.340751 14.619826 -14.866643 -14.977061 -2.238290 -9.830074 -4.783021 23.853183 10.112041 7.629133 53.048647 -1.538181 9.258698 -16.114281 23.447131 -9.197966 12.108271 12.745209 -5.004124 
